<svg id="Capa_1" enable-background="new 0 0 512.011 512.011" height="512" viewBox="0 0 512.011 512.011" width="512" xmlns="http://www.w3.org/2000/svg" xmlns:xlink="http://www.w3.org/1999/xlink"><linearGradient id="SVGID_1_" gradientUnits="userSpaceOnUse" x1="278.512" x2="278.512" y1="512.006" y2="45.006"><stop offset="0" stop-color="#00b59c"/><stop offset="1" stop-color="#9cffac"/></linearGradient><linearGradient id="SVGID_2_" gradientUnits="userSpaceOnUse" x1="211.006" x2="211.006" y1="362.006" y2="331.839"><stop offset="0" stop-color="#9bff9d"/><stop offset=".9973" stop-color="#e2ffea"/><stop offset="1" stop-color="#e2ffea"/></linearGradient><g><g><g><path d="m225.012 255.006v-30h30c16.816 0 30-13.184 30-30v-60c0-16.816-13.184-30-30-30h-30v-30c0-16.816-13.184-30-30-30h-60c-16.816 0-30 13.184-30 30v30h-30c-16.816 0-30 13.184-30 30v60c0 16.816 13.184 30 30 30h30v30c0 16.816 13.184 30 30 30h60c16.816 0 30-13.184 30-30zm270.74 163.133c10.781-21.885 16.26-45.82 16.26-71.133 0-90.981-74.033-165-165-165-13.33 0-25.957 1.465-37.529 4.336-5.449 1.362-9.697 5.669-10.986 11.162-11.572 49.79-51.211 89.429-100.986 101.001-5.479 1.274-9.785 5.508-11.162 10.972-2.871 11.543-4.336 24.17-4.336 37.529 0 90.981 74.033 165 165 165h150c6.064 0 11.543-3.647 13.857-9.258 2.314-5.61 1.025-12.056-3.252-16.348-17.843-17.842-22.56-45.395-11.866-68.261z" fill="url(#SVGID_1_)"/></g></g><g><g><path d="m165.012.006c-90.901 0-165 74.099-165 165 0 25.199 5.398 49.2 16.201 70.8 10.8 23.101 5.999 50.7-11.7 68.699-4.501 4.2-5.702 10.501-3.3 16.201 2.399 5.7 7.8 9.3 13.799 9.3h150c13.198 0 26.1-1.5 37.2-4.2 60.901-14.1 109.2-62.701 123.6-123.3 2.699-11.4 4.2-24 4.2-37.5 0-90.901-74.1-165-165-165zm105 195c0 8.399-6.599 15-15 15h-45v45c0 8.399-6.599 15-15 15h-60c-8.401 0-15-6.601-15-15v-45h-45c-8.401 0-15-6.601-15-15v-60c0-8.401 6.599-15 15-15h45v-45c0-8.401 6.599-15 15-15h60c8.401 0 15 6.599 15 15v45h45c8.401 0 15 6.599 15 15zm17 137c-8.284 0-15 6.716-15 15s6.716 15 15 15 15-6.716 15-15-6.716-15-15-15zm60 0c-8.284 0-15 6.716-15 15s6.716 15 15 15 15-6.716 15-15-6.716-15-15-15zm60 0c-8.284 0-15 6.716-15 15s6.716 15 15 15 15-6.716 15-15-6.716-15-15-15z" fill="url(#SVGID_2_)"/></g></g></g></svg>