<svg id="flat" height="512" viewBox="0 0 512 512" width="512" xmlns="http://www.w3.org/2000/svg"><path d="m192 280h32a16 16 0 0 0 16-16v-152a16 16 0 0 0 -16-16h-160a16 16 0 0 0 -16 16v152a16 16 0 0 0 16 16h72l56 48z" fill="#d1e4ff"/><circle cx="128" cy="176" fill="#548aff" r="48"/><path d="m464 440v-80h-169.37259a54.62738 54.62738 0 0 0 -38.62741 16 54.62733 54.62733 0 0 0 -38.62737-16h-169.37263v80h160l20.68631 20.68631a38.62738 38.62738 0 0 0 27.31369 11.31369 38.6274 38.6274 0 0 0 27.31367-11.31369l20.68633-20.68631z" fill="#ffe28f"/><g fill="#ffd873"><path d="m120 384h16v16h-16z"/><path d="m264 400.57788v-16.57788a8 8 0 0 0 -8-8 8 8 0 0 0 -8 8v16.57789a65.569 65.569 0 0 0 -43.77734-16.57789h-52.22266v16h52.22266a49.598 49.598 0 0 1 43.77734 25.9624v46.0376h16v-46.03906a49.59609 49.59609 0 0 1 43.77734-25.96094h76.22266v-16h-76.22266a65.569 65.569 0 0 0 -43.77734 16.57788z"/><path d="m400 384h64v16h-64z"/><path d="m328 360 31.36631-23.52473a106.76757 106.76757 0 0 0 40.63369-64.47527l17.42552 29.04253a46.13442 46.13442 0 0 1 6.57448 23.73596v.00005a35.22146 35.22146 0 0 1 -35.22146 35.22146z"/></g><path d="m304 424h184v32h-176l-15.02946 15.02945a57.941 57.941 0 0 1 -40.97054 16.97055 57.941 57.941 0 0 1 -40.97052-16.97055l-15.02948-15.02945h-176v-32h184l20.6863 20.6863a38.62739 38.62739 0 0 0 27.3137 11.3137 38.62739 38.62739 0 0 0 27.31368-11.3137z" fill="#ffa100"/><path d="m320 200h-32a16 16 0 0 1 -16-16v-144a16 16 0 0 1 16-16h160a16 16 0 0 1 16 16v144a16 16 0 0 1 -16 16h-72l-56 48z" fill="#d1e4ff"/><path d="m352 160 8 8h16l8-8z" fill="#718799"/><path d="m352 120h32v40h-32z" fill="#8098ab"/><g fill="#ffc431"><path d="m360 48h16v16h-16z"/><path d="m326.059 62.059h16v16h-16z" transform="matrix(.707 -.707 .707 .707 48.301 256.729)"/><path d="m312 96h16v16h-16z"/><path d="m408 96h16v16h-16z"/><path d="m393.941 62.059h16v16h-16z" transform="matrix(.707 -.707 .707 .707 68.197 304.749)"/><path d="m136 160h72v80h-72z"/></g><path d="m88 240 48-56 48 56z" fill="#ef5e3b"/><circle cx="368" cy="104" fill="#ffc431" r="24"/></svg>