<?xml version="1.0" encoding="iso-8859-1"?>
<!-- Generator: Adobe Illustrator 19.0.0, SVG Export Plug-In . SVG Version: 6.00 Build 0)  -->
<svg version="1.1" id="Capa_1" xmlns="http://www.w3.org/2000/svg" xmlns:xlink="http://www.w3.org/1999/xlink" x="0px" y="0px"
	 viewBox="0 0 480 480" style="enable-background:new 0 0 480 480;" xml:space="preserve">
<linearGradient id="SVGID_1_" gradientUnits="userSpaceOnUse" x1="-26.875" y1="557.625" x2="-26.875" y2="623.959" gradientTransform="matrix(8 0 0 -8 455 4941)">
	<stop  offset="0" style="stop-color:#006DF0"/>
	<stop  offset="1" style="stop-color:#00E7F0"/>
</linearGradient>
<path style="fill:url(#SVGID_1_);" d="M472,64h-56V8c0-4.418-3.582-8-8-8H8C3.582,0,0,3.582,0,8v400c0,4.418,3.582,8,8,8h56v56
	c0,4.418,3.582,8,8,8h400c4.418,0,8-3.582,8-8V72C480,67.582,476.418,64,472,64z M16,400V16h384v48H72c-4.418,0-8,3.582-8,8v328H16z
	 M464,464H80V80h384V464z"/>
<linearGradient id="SVGID_2_" gradientUnits="userSpaceOnUse" x1="-22.8933" y1="557.625" x2="-22.8933" y2="623.959" gradientTransform="matrix(8 0 0 -8 455 4941)">
	<stop  offset="0" style="stop-color:#006DF0"/>
	<stop  offset="1" style="stop-color:#00E7F0"/>
</linearGradient>
<path style="fill:url(#SVGID_2_);" d="M362.504,181.496c-3.124-3.123-8.188-3.123-11.312,0l-79.2,79.2l-79.2-79.2
	c-2.968-3.273-8.027-3.521-11.3-0.553s-3.521,8.027-0.553,11.3c0.176,0.195,0.362,0.38,0.557,0.557l79.2,79.2l-79.2,79.2
	c-3.251,2.992-3.461,8.053-0.469,11.304c2.992,3.251,8.053,3.461,11.304,0.469c0.163-0.15,0.319-0.306,0.469-0.469l79.2-79.2
	l79.2,79.2c3.251,2.992,8.312,2.782,11.304-0.469c2.818-3.062,2.818-7.773,0-10.835l-79.2-79.2l79.2-79.2
	C365.622,189.677,365.622,184.619,362.504,181.496L362.504,181.496z"/>
<g>
</g>
<g>
</g>
<g>
</g>
<g>
</g>
<g>
</g>
<g>
</g>
<g>
</g>
<g>
</g>
<g>
</g>
<g>
</g>
<g>
</g>
<g>
</g>
<g>
</g>
<g>
</g>
<g>
</g>
</svg>
